# xmcd
#
# Track frame offsets: 
#        150
#        16005
#        29953
#        43254
#        57727
#        74814
#        92511
#        105384
#        121612
#        140245
#
# Disc length: 2126 seconds
#
# Revision: 0
# Processed by: cddbd v1.5.2PL0 Copyright (c) Steve Scherf et al.
# Submitted via: ExactAudioCopy v1.3
#
DISCID=93084c0a
DTITLE=Steve LaTourrette - Tell Me Something (Promotional Copy)
DYEAR=2004
DGENRE=Blues
TTITLE0=She's Fine
TTITLE1=Hesitated Mind
TTITLE2=Mr. 9 O'Clock
TTITLE3=Her Way
TTITLE4=LaTourrette's Syndrome
TTITLE5=Back to School
TTITLE6=Tell Me Something
TTITLE7=Rubber Boots
TTITLE8=Hidden Treasure
TTITLE9=Long Way Home
EXTD=
EXTT0=
EXTT1=
EXTT2=
EXTT3=
EXTT4=
EXTT5=
EXTT6=
EXTT7=
EXTT8=
EXTT9=
PLAYORDER=
